<svg id="magnifying_icon" xmlns="http://www.w3.org/2000/svg" viewBox="0 0 349 349">
  <defs>
    <style>
      .cls-1 {
        fill: #fff;
        stroke: #ccc;
        stroke-miterlimit: 10;
        stroke-width: 8px;
      }
    </style>
  </defs>
  <title>magnifying</title>
  <circle class="cls-1" cx="174.5" cy="174.5" r="170.5"/>
  <circle class="cls-1" cx="174.5" cy="174.5" r="170.5"/>
  <g>
    <circle class="cls-1" cx="478.21" cy="333.15" r="54.75" transform="translate(-455.51 225.73) rotate(-45)"/>
    <path class="cls-1" d="M629.93,462.9a15.77,15.77,0,0,1-.1,22.22h0a15.77,15.77,0,0,1-22.22.1l-99-99c-6.7-6.7,5.23-5.23,11.34-11.34h0c6.11-6.11,4.29-17.68,11-11Z" transform="translate(-360 -210)"/>
    <path class="cls-1" d="M530.9,408.52,508.58,386.2c-6.7-6.7,5.23-5.23,11.34-11.34h0c6.11-6.11,4.29-17.68,11-11l22.33,22.33Z" transform="translate(-360 -210)"/>
  </g>
  <g id="Layer_2" data-name="Layer 2">
    <path class="cls-1" d="M453.7,357.66a34.66,34.66,0,0,1,0-49" transform="translate(-360 -210)"/>
  </g>
</svg>
